<svg width="391" height="270" fill="none" xmlns="http://www.w3.org/2000/svg">
  <path d="M96.0001 150v-32h-40l40 32zM72.0001 59h72v59h-72z" fill="#9CC154"/>
  <path fill="#55A277" d="M72.0001 0h72v59h-72z"/>
  <path fill="#53A8DB" d="M.0001 0h72v59h-72z"/>
  <path d="M355.5 199l12 4s-8.503 11.5-19 25.5c-8.5 10-11.315 17.711-12.5 17 .189-3.961 2-9 9-23.5 0 0 8.5-18.5 10.5-23zM116 200l-12 4s8.503 11.5 19 25.5c8.5 10 11.315 17.711 12.5 17-.189-3.961-2-9-9-23.5 0 0-8.5-18.5-10.5-23z" fill="#983517"/>
  <path d="M371.5 193s-58 39.5-135 39.5S106 208.5 96 193s275.5 0 275.5 0z" fill="#983517"/>
  <path d="M237.758 261.572c1.5 1.8 10.9 6.8 14.5 7.7 1.7.5 6.2.6 9.9.4 10.6-.6 19.4-5.2 33.1-17.4 3.8-3.3 11.4-8.8 17-12.2 7.4-4.5 12.8-8.9 20.1-16.2 3.337-3.398 13.455-17.504 17.642-18.7 0 0 4.642-4.344 12.5-2.172s5.358 5.472 5.358 7.272c0 3.9-3.1 13.9-8.2 26.4-11.3 27.5-13.7 37.4-6.4 26 2.1-3.3 9.8-14.5 17.1-25 13.7-19.6 18.9-28.2 19.8-32.5.4-2.2-1-3.6-13.6-13-7.8-5.8-14.3-11.2-14.5-12-.1-.9 1.8-4.7 4.2-8.5 2.5-3.9 4.6-7.8 4.6-8.7 0-2.1-2.3-3.4-7.5-4.3-9.6-1.6-11.5-2.5-11.5-4.9 0-1.3 1.1-5.4 2.5-9.1 3.4-9 3.1-10.8-2-11.7-2.2-.4-6.6-.7-9.8-.7-4.1-.1-5.9-.5-6.3-1.6-.3-.8.2-5 1.1-9.4 2.4-10.9 2-11.6-5.8-10.6-3.4.4-8 .8-10.2.9l-4 .1-.8-9c-.4-4.9001-1-9.6001-1.2-10.4001-.7-1.7-5-1-13.2 2-4.3 1.7-6.5 2.1-7.3 1.3-.6-.6-1.7-4.6-2.5-8.9-1.5-7.8-2.8-10.5-4.9-10.5-.6 0-4.1 2-7.8 4.5s-7.6 4.5-8.6 4.5c-1.4 0-2.6-1.5-4.1-4.9-1.1-2.7-2.1-5.3-2.1-5.8 0-.4-.9-2.3-2-4.1-1.9-3.1-2.1-3.2-4.8-1.8-1.5.8-4.7 3.5-7.2 6-6.2 6.4-8 6.2-13.1-1.9-5.5-8.7-6.9-9.4-10.6-5.1-1.5 1.9-4 5.3-5.5 7.5-1.7 2.5-3.6 4.1-4.7 4.1s-4.7-2.5-7.9-5.5c-8.5-7.8-9.3-7.6-14 4.1-3.3 8.4-4.9 8.9-11.8 3.9-8.3-5.9-9.3-6.3-11.5-3.7-1 1.3-2.1 4.4-2.4 7-.4 2.6-1.1 6.2-1.7 8-1.2 4-3.858 1.6281-11.658-1.9719-4.1-1.9-8-4.5-10.5-3s-.285 15.844-1.642 19.672C142.5 111.5 123.648 105.79 122.5 110c-1.5 5.5 5.5 19 1.858 21.672-2.845 2.087-18.67-1.672-20.858 1.828-2.187 3.5 7 14.728 6 19s-6.642 4.972-9.6423 5.572c-10.9 2.3-11.7 4.2-5.4 13.6 1.9 2.7 3.4 5.3 3.4 5.7 0 1.8-2.8.5-8.1-3.6-5.6-4.4-9.9-9.1-9.9-10.8 0-.5 1.9-3.3 4.3-6.2 2.3-2.8 4.9-6.3 5.9-7.6 1.4-2.1 6.4424-5.672 4.9424-22.672C93.7206 112 72.5 99 72.5 99l-.4999 41s-16-10-10.1424-37.328c0 0-14.6 5.328-17.8576 11.328-3.2577 6-4.0424 16.772-1.2424 22.872 2.5 5.3 5.2 8.7 12.3 15.7 5.7 5.5 10.1 10.8 11.7 14 1.5 3.1 6.3 8.9 12.3 15l9.8 9.8-7.5 8c-5 5.3-7.5 8.8-7.5 10.3s2.2 4.8 5.7 8.7c8.6 9.5 43.4003 44.7 46.6003 46.9l2.7 2-1-2.5c-1.9-5.2-5.5-11.4-12.3-21.6-8.9-13.2-16.7003-28.2-16.7003-31.9 0-.82 4.6413-6.065 6.2003-7 2-1 3.1-.9 6.9.7 8 3.5 32.5 11.1 45.1 14.2 24.2 5.8 48.5 9 68.5 9h11.5l6.1-5.5c15.5-13.9 30.1-15.1 44.7-3.5 2.1 1.6 4.7 3 5.8 3 1.8 0 22.2-5.6 27.7-7.6 1.2-.4.2 1.2-2.8 4.2-4.5 4.7-12.558 8.9-12.558 8.9s-9.064 3.5-9.742 3.5c-.3 0-3-2.7-6.1-6.1-8.9-9.5-16.5-12.6-25.8-10.4-6.9 1.6-12.3 5.1-20.1 13-8.9 9.2-9 9.1 3.5 8.7 9.2-.4 22.7.9 26.8 2.5 2.6 1 1.2 3.3-4.9 8.4-8.8 7.3-16.4 10.5-29.1 12.4-3 .5-3.6.9-2.8 1.9z" fill="#E45928"/>
  <path d="M72.0655 130.853V118H56.0001l16.0654 12.853zM.0001 59h72v59h-72z" fill="#3D5A8F"/>
  <path d="M44.2292 28H29v62h15.2292V40.5L91.2604 90H115V28H99.7708v48.5L52.9733 28h-8.7441z" fill="#fff"/>
  <path d="M225.747 184c1.977 17.093-7.968 21-17.796 21-9.829 0-19.28-7.326-17.797-21 1.251-11.532 7.968-21 17.797-21 9.828 0 16.463 9.477 17.796 21z" fill="#000"/>
  <ellipse cx="203" cy="175.5" rx="9" ry="10.5" fill="#fff"/>
  <path d="M283.747 184c1.977 17.093-7.968 21-17.796 21-9.829 0-19.28-7.326-17.797-21 1.251-11.532 7.968-21 17.797-21 9.828 0 16.463 9.477 17.796 21z" fill="#000"/>
  <ellipse cx="261" cy="175.5" rx="9" ry="10.5" fill="#fff"/>
</svg>
